<svg width="127" height="31" viewBox="0 0 127 31" fill="none" xmlns="http://www.w3.org/2000/svg">
<g id="Social">
<path id="Whatsapp" d="M103.906 24.8235L104.995 25.4601C106.833 26.5317 108.923 27.0943 111.05 27.09C113.431 27.09 115.759 26.3838 117.739 25.0609C119.719 23.7379 121.262 21.8575 122.174 19.6575C123.085 17.4575 123.323 15.0366 122.859 12.7011C122.394 10.3656 121.247 8.22025 119.564 6.53643C117.88 4.85261 115.734 3.70591 113.399 3.24134C111.063 2.77678 108.643 3.01521 106.443 3.92649C104.242 4.83777 102.362 6.38096 101.039 8.36093C99.7162 10.3409 99.01 12.6687 99.01 15.05C99.01 17.2112 99.5774 19.2836 100.641 21.1061L101.277 22.1957L100.294 25.8092L103.906 24.8235ZM96.006 30.1L98.0408 22.6231C96.7001 20.3248 95.9956 17.7108 96 15.05C96 6.73788 102.738 0 111.05 0C119.362 0 126.1 6.73788 126.1 15.05C126.1 23.3621 119.362 30.1 111.05 30.1C108.39 30.1043 105.777 29.4004 103.48 28.0607L96.006 30.1ZM105.618 7.98853C105.82 7.97348 106.023 7.97348 106.225 7.98251C106.306 7.98853 106.388 7.99757 106.469 8.0066C106.708 8.03368 106.971 8.17967 107.06 8.38134C107.509 9.39872 107.945 10.4236 108.367 11.4515C108.46 11.6803 108.404 11.9738 108.227 12.2597C108.104 12.4531 107.972 12.64 107.831 12.8196C107.661 13.0378 107.295 13.4381 107.295 13.4381C107.295 13.4381 107.146 13.6157 107.203 13.837C107.224 13.9212 107.294 14.0431 107.357 14.1455L107.446 14.2885C107.831 14.9311 108.349 15.5828 108.981 16.1968C109.161 16.3714 109.337 16.5505 109.527 16.7175C110.231 17.3391 111.029 17.8463 111.89 18.2225L111.897 18.2255C112.025 18.2812 112.09 18.3113 112.277 18.3911C112.37 18.4302 112.466 18.4648 112.564 18.4904C112.665 18.5162 112.772 18.5113 112.87 18.4765C112.968 18.4417 113.054 18.3784 113.116 18.2948C114.206 16.9749 114.305 16.8891 114.314 16.8891V16.8921C114.39 16.8215 114.48 16.7679 114.578 16.735C114.676 16.702 114.78 16.6904 114.883 16.701C114.974 16.707 115.065 16.7235 115.15 16.7612C115.949 17.1269 117.257 17.6973 117.257 17.6973L118.133 18.0901C118.28 18.1608 118.414 18.3279 118.418 18.4889C118.425 18.5897 118.434 18.7523 118.399 19.0503C118.351 19.4401 118.233 19.9081 118.116 20.1534C118.036 20.3209 117.929 20.4743 117.8 20.608C117.648 20.7674 117.482 20.9125 117.303 21.0414C117.242 21.0878 117.179 21.133 117.115 21.1768C116.928 21.2956 116.736 21.4061 116.539 21.5079C116.151 21.7138 115.723 21.8319 115.285 21.8541C115.007 21.8691 114.728 21.8902 114.448 21.8752C114.436 21.8752 113.593 21.7442 113.593 21.7442C111.454 21.1814 109.475 20.1271 107.814 18.665C107.474 18.3655 107.16 18.0434 106.838 17.7229C105.498 16.3909 104.487 14.9537 103.873 13.5962C103.558 12.9299 103.389 12.2046 103.375 11.4681C103.368 10.5543 103.667 9.6646 104.223 8.93969C104.333 8.79822 104.437 8.65073 104.616 8.48067C104.807 8.30007 104.928 8.20375 105.059 8.13753C105.233 8.05029 105.423 7.9991 105.617 7.98703L105.618 7.98853Z" fill="#101010"/>
<path id="Telegram" d="M63.05 27.09C66.2432 27.09 69.3056 25.8215 71.5636 23.5636C73.8215 21.3056 75.09 18.2432 75.09 15.05C75.09 11.8568 73.8215 8.79437 71.5636 6.53643C69.3056 4.2785 66.2432 3.01 63.05 3.01C59.8568 3.01 56.7944 4.2785 54.5364 6.53643C52.2785 8.79437 51.01 11.8568 51.01 15.05C51.01 18.2432 52.2785 21.3056 54.5364 23.5636C56.7944 25.8215 59.8568 27.09 63.05 27.09ZM63.05 30.1C54.7379 30.1 48 23.3621 48 15.05C48 6.73789 54.7379 0 63.05 0C71.3621 0 78.1 6.73789 78.1 15.05C78.1 23.3621 71.3621 30.1 63.05 30.1ZM58.3695 16.8109L54.61 15.6385C53.7973 15.3901 53.7927 14.8303 54.7921 14.4284L69.4402 8.76964C70.2906 8.42348 70.7722 8.86144 70.4967 9.95858L68.003 21.7277C67.8284 22.566 67.3242 22.7661 66.6244 22.3794L62.7851 19.5379L60.9957 21.2656C60.8121 21.4432 60.6631 21.5952 60.3801 21.6329C60.0987 21.672 59.8669 21.5877 59.6969 21.1212L58.3875 16.8003L58.3695 16.8124V16.8109Z" fill="#101010"/>
<path id="VK" d="M0 7.99944C0 6.96133 0.575033 6.40157 1.7251 6.32015L6.15682 6.35068C6.45425 6.35068 6.65254 6.50334 6.75168 6.80867C7.20774 8.3353 7.71833 9.65328 8.28345 10.7626C8.84857 11.872 9.58719 13.1493 10.4993 14.5945C10.5786 14.7777 10.7075 14.8693 10.886 14.8693C11.0248 14.8693 11.1338 14.798 11.2131 14.6555L11.3024 14.3197L11.3321 9.03754C11.3321 8.67115 11.2478 8.42689 11.0793 8.30476C10.9108 8.18263 10.5985 8.09104 10.1424 8.02997C9.78547 7.96891 9.60702 7.745 9.60702 7.35826C9.60702 7.27683 9.61693 7.21577 9.63676 7.17506C10.0532 5.85198 11.2429 5.19044 13.2059 5.19044L14.8715 5.15991C15.625 5.15991 16.2496 5.35328 16.7454 5.74003C17.2411 6.12678 17.4889 6.73743 17.4889 7.57198V14.5029C17.6277 14.6046 17.7566 14.6555 17.8756 14.6555C18.173 14.6555 18.4308 14.4723 18.6489 14.1059C20.8301 10.9713 22.0099 8.8747 22.1883 7.81624C22.1883 7.79589 22.2082 7.745 22.2478 7.66358C22.3866 7.35826 22.6147 7.09364 22.9319 6.86973C23.2492 6.64583 23.5268 6.49317 23.7647 6.41175C23.844 6.37104 23.9333 6.35068 24.0324 6.35068H28.6426L28.94 6.38121C29.3366 6.38121 29.6439 6.57459 29.8621 6.96133C29.9414 7.08346 29.9959 7.21577 30.0256 7.35826C30.0554 7.50074 30.0752 7.64323 30.0851 7.78571C30.095 7.9282 30.1 8.00962 30.1 8.02997V8.2437C29.9612 9.07826 29.6092 9.96879 29.0441 10.9153C28.479 11.8618 27.7602 12.8846 26.8877 13.9838C26.0153 15.083 25.47 15.8056 25.2519 16.1516C25.0734 16.3959 24.9842 16.6198 24.9842 16.8233C24.9842 16.9862 25.0635 17.1694 25.2221 17.3729L29.5646 22.9909C29.8026 23.3166 29.9215 23.6728 29.9215 24.0596C29.9215 24.5277 29.7431 24.9145 29.3862 25.2198C29.0292 25.5251 28.6029 25.6981 28.1072 25.7388L27.6016 25.7694H23.0806C23.0608 25.7694 23.0211 25.7745 22.9617 25.7846C22.9022 25.7948 22.8625 25.7999 22.8427 25.7999C22.4065 25.7999 22 25.6065 21.6232 25.2198C21.4844 25.057 20.5525 23.856 18.8274 21.617C18.7282 21.4745 18.5894 21.3422 18.411 21.22C18.3317 21.5457 18.2276 22.0139 18.0987 22.6245C17.9698 23.2352 17.8756 23.6728 17.8161 23.9374L17.7269 24.4565C17.5286 25.1689 17.1122 25.5964 16.4777 25.7388L16.0613 25.7694H13.1464C11.5007 25.7694 9.85983 24.9959 8.22396 23.4489C6.58809 21.9019 5.11581 19.902 3.80711 17.4493C2.49842 14.9965 1.27895 12.1417 0.148715 8.88488C0.0495718 8.62027 0 8.32512 0 7.99944ZM17.8756 15.9074C17.4592 15.9074 17.0824 15.7903 16.7454 15.5562C16.4083 15.3222 16.2397 15.0016 16.2397 14.5945V7.57198C16.2397 7.16488 16.1406 6.87482 15.9423 6.70181C15.744 6.52879 15.397 6.44228 14.9013 6.44228L13.2059 6.50334C12.3533 6.50334 11.7089 6.65601 11.2726 6.96133C12.1451 7.38879 12.5813 8.08086 12.5813 9.03754V14.4113C12.5417 14.9201 12.3434 15.3425 11.9865 15.6784C11.6295 16.0142 11.233 16.1822 10.7967 16.1822C10.2019 16.1822 9.74582 15.887 9.42856 15.2967C7.88192 12.8948 6.73185 10.6151 5.97836 8.45743L5.71067 7.66358L1.75484 7.63305C1.49707 7.63305 1.35331 7.64831 1.32357 7.67885C1.29382 7.70938 1.27895 7.79589 1.27895 7.93837C1.27895 8.12157 1.29878 8.31494 1.33844 8.51849L1.96304 10.2283C3.62866 14.6454 5.43803 18.1261 7.39116 20.6704C9.34429 23.2148 11.2627 24.487 13.1464 24.487H16.1208C16.2397 24.487 16.329 24.4514 16.3884 24.3801C16.4479 24.3089 16.4975 24.1715 16.5372 23.968L16.5966 23.6626L17.1618 20.9758C17.3204 20.6094 17.4592 20.3651 17.5782 20.243C17.7963 20.0191 18.0541 19.9071 18.3515 19.9071C18.8274 19.9071 19.3132 20.2023 19.8089 20.7926L22.3371 24.0901C22.4957 24.3547 22.6642 24.487 22.8427 24.487H27.7503C28.3452 24.487 28.6426 24.3343 28.6426 24.029C28.6426 23.9272 28.6128 23.8255 28.5534 23.7237L24.2406 18.1973C23.9035 17.7699 23.735 17.3119 23.735 16.8233C23.735 16.3348 23.8936 15.8667 24.2109 15.4188C24.4686 15.0117 24.9693 14.3349 25.7129 13.3884C26.4565 12.4419 27.1059 11.5565 27.6611 10.7321C28.2163 9.90772 28.5831 9.15968 28.7616 8.48796L28.8508 8.09104C28.831 8.05033 28.821 7.98417 28.821 7.89257C28.821 7.80098 28.8111 7.72465 28.7913 7.66358H24.1216C23.8242 7.78571 23.5863 7.96891 23.4078 8.21317L23.2293 8.79328C22.7336 10.1978 21.4348 12.3656 19.333 15.2967C18.9166 15.7038 18.4308 15.9074 17.8756 15.9074Z" fill="#101010"/>
</g>
</svg>
